<?xml version="1.0" encoding="UTF-8"?>
<svg id="_Слой_2" data-name="Слой 2" xmlns="http://www.w3.org/2000/svg" viewBox="0 0 755.35 230.5">
  <defs>
    <style>
      .cls-1 {
        fill: #fff;
        stroke-width: 0px;
      }
    </style>
  </defs>
  <g id="logo">
    <g id="logo_all" data-name="logo all">
      <g id="logo-2">
        <path class="cls-1" d="m156.02,105.5s-1.47-6.42-2-8.06-2.42-6.53-2.42-6.53l5.59-10-8.4-8.51-12.72,6s-4.11-2.44-5.56-3.08-6.31-2.17-6.31-2.17l-3.19-12.79h-12.54l-4.3,12.61c-2.27.54-4.51,1.21-6.71,2-1.54.74-5.91,3.11-5.91,3.11l-11.87-5.94-8,8.22,5.49,10.55s-2.7,6.33-3.38,8.51c-.48,1.55-1.35,7.23-1.35,7.23l-12.86,2.62v11.78l13.43,2.94s1.35,6.42,2,8.18c.73,2,2.8,6.11,2.8,6.11l-6.11,11.07,9.57,9.08,9.83-6.57s5.19,2.82,7,3.48,7,2.34,7,2.34l3.66,12h12.33l3.73-12.37s5-1.45,6.73-2.2c1.51-.67,5.9-3,5.9-3l11.72,6.39,8-8.88-6.63-12.12s4-5.48,4.69-7.1,2-6.58,2-6.58l12.21-2.51v-12.36l-13.42-3.45Zm-41.51,31.53c-11.6,0-21-9.4-21-21s9.4-21,21-21c11.6,0,21,9.4,21,21s-9.4,21-21,21h0,0Z"/>
        <path class="cls-1" d="m205.56,90.5s-2.91-10.31-4.22-13.58c-1.43-3.52-6.74-13.58-6.74-13.58l12.67-22.36-17.92-17.58-23.28,12.44s-9.73-5.38-13.13-6.85c-3.19-1.38-13.13-4.56-13.13-4.56l-6.5-24.43h-36.53l-6.5,24.43s-9.94,3.18-13.13,4.56c-3.39,1.47-13.12,6.85-13.12,6.85l-23.29-12.44-17.92,17.58,12.67,22.37s-5.32,10.06-6.73,13.58c-1.32,3.27-4.23,13.57-4.23,13.57L0,97.35v36.42l24,6.4s3.19,9.94,4.57,13.13c1.46,3.4,6.85,13.12,6.85,13.12l-12.45,23.29,17.58,17.92,22.37-12.67s10.06,5.31,13.59,6.73c3.26,1.32,13.58,4.23,13.58,4.23l6.87,24.58h36.21l6.85-24.54s10.31-2.91,13.58-4.23c3.52-1.42,13.58-6.73,13.58-6.73l22.37,12.67,17.58-17.92-12.44-23.29s5.38-9.72,6.85-13.12c1.37-3.19,4.56-13.13,4.56-13.13l24-6.4v-36.45l-24.54-6.86ZM109.8,3.05h10.5v50.86h-10.5V3.05Zm-56.2,117.62H3.04v-10.07h50.56v10.07Zm56.57,106.76v-51.41h9.7v51.41h-9.7Zm62.23-102.93l-12,3s-1.46,4.23-2.11,5.59-3.26,5.55-3.26,5.55l6.74,11.23-11.19,13-13-6.62s-3.91,2.17-5.25,2.8-5.48,2.22-5.48,2.22l-3.18,11.82h-17.17l-4.54-12s-4.47-1.19-6-1.82c-1.21-.51-5-2.74-5-2.74l-11.18,6.85-12.79-13,6.39-11.18s-2-3.89-2.49-5.25-1.61-6.16-1.61-6.16l-12.79-3.66v-17.8l12.41-1.66s1.3-5,1.9-6.67c.52-1.43,2.58-5.6,2.58-5.6l-5.7-12.1,11.87-11.87,11.41,5.48s3.86-2.11,5.17-2.65,5.37-1.76,5.37-1.76l4.57-12.6h17.46l3.65,13s3.84,1.11,5,1.56c1.33.52,4.85,2.32,4.85,2.32l12.78-6.39,11.87,11.87-5.93,12.1s1.89,4.25,2.37,5.65,1.51,5.76,1.51,5.76l12.78,3.2v18.53Zm54.66-3.82h-51.67v-10.08h51.67v10.08Z"/>
      </g>
      <g id="text">
        <path class="cls-1" d="m322.63,155.35h26.25l-25.34-61.91-4-8.56s-2.8-4.54-4.1-5.71c-1.32-1.11-2.83-1.96-4.46-2.51-2.76-.36-5.54-.55-8.33-.57-2.79.02-5.57.21-8.33.57-1.63.55-3.14,1.4-4.45,2.51-1.31,1.17-4.11,5.71-4.11,5.71l-4,8.56-25.33,61.91h26.25l5.85-16h28.25l5.85,16Zm-27.58-33.84l7.6-20.77,7.61,20.77h-15.21Z"/>
        <path class="cls-1" d="m460.29,85.61c-.94-2.42-2.42-4.58-4.34-6.33-1.7-1.21-3.62-2.08-5.65-2.57-4.17-.73-12.81-.93-16.94,0-1.32.41-2.59.99-3.77,1.71-1.63,1.01-3.13,2.21-4.45,3.6-1.21,1.87-2.3,3.81-3.26,5.82l-15.23,42.8-15.24-42.8c-.96-2.01-2.04-3.95-3.25-5.82-1.33-1.39-2.83-2.6-4.46-3.6-1.18-.72-2.44-1.3-3.76-1.71-4.14-.93-12.78-.73-17,0-2.03.49-3.95,1.36-5.65,2.57-1.92,1.75-3.4,3.91-4.34,6.33-.17,1.02-.26,2.05-.28,3.08v66.43h25l-.08-49s-.11-.75.08-.78.34.7.34.7l13.53,39.88,2.61,5.43s2.56,3.2,3.77,3.77c2,.94,8.73.86,8.73.86,0,0,6.75.08,8.73-.86,1.2-.57,3.76-3.77,3.76-3.77l2.57-5.47,13.54-39.88s.14-.73.33-.7.08.78.08.78l-.08,49h25v-66.39c-.02-1.03-.12-2.06-.29-3.08Z"/>
        <rect class="cls-1" x="472.33" y="76.71" width="25.11" height="78.53"/>
        <path class="cls-1" d="m576.99,96.17v-19.34h-52.53c-2.09,0-4.17.34-6.16,1-.65.2-1.29.44-1.91.72-1.63.87-3.13,1.96-4.45,3.25-2.35,2.41-3.81,5.55-4.11,8.9-.33,4.85-.33,9.71,0,14.56.06,1.68.29,3.36.68,5,.56,1.77,1.33,3.48,2.28,5.08,1.41,1.49,3.08,2.73,4.91,3.65,1.63.77,7.88,2.91,7.88,2.91l9.24,2.57,10.28,2.88,9.24,2.74c.66.26,1.29.6,1.88,1,.39.45.68.97.86,1.54.16.6.23,2-.3,2.47-.69.64-3.64.44-3.64.44h-42.63v19.69h57.7c1.44-.21,2.87-.5,4.28-.86,1.13-.47,2.22-1.04,3.25-1.71,1.2-.77,2.29-1.69,3.25-2.74.93-1.45,1.67-3,2.23-4.62.54-2.14.94-4.32,1.2-6.51,0-2.35.13-7.06,0-9.41-.16-2.91-.68-5.78-1.54-8.56-.69-1.72-2.66-5-4.11-6.17-2.36-1.85-11-4.85-11-4.85l-9.81-2.62-9-2.11-5.65-1.2c-1.81-.57-3.59-1.25-5.31-2.06-.78-.53-1.42-1.23-1.88-2.05-.17-.81-.09-1.65.23-2.41.28-.5.7-.92,1.2-1.2.9-.16,1.82-.22,2.74-.17l40.7.19Z"/>
        <rect class="cls-1" x="586.43" y="115.69" width="47.94" height="17.46"/>
        <rect class="cls-1" x="643.61" y="76.32" width="25.34" height="78.76"/>
        <polygon class="cls-1" points="755.35 76.32 673.17 76.32 673.17 96.17 701.59 96.17 701.59 155.07 726.24 155.07 726.24 96.17 755.35 96.17 755.35 76.32"/>
      </g>
    </g>
  </g>
</svg>