<?xml version="1.0" standalone="no"?>
        <!DOCTYPE svg PUBLIC "-//W3C//DTD SVG 1.1//EN" 
        "http://www.w3.org/Graphics/SVG/1.1/DTD/svg11.dtd">  <svg xmlns="http://www.w3.org/2000/svg" xmlns:xlink="http://www.w3.org/1999/xlink" width="40" zoomAndPan="magnify" viewBox="0 0 30 30.000001" height="40" preserveAspectRatio="xMidYMid meet" version="1.0"><defs><clipPath id="id1"><path d="M 6 17 L 27.761719 17 L 27.761719 23.535156 L 6 23.535156 Z M 6 17 " clip-rule="nonzero"/></clipPath><clipPath id="id2"><path d="M 6 5.390625 L 27.761719 5.390625 L 27.761719 18 L 6 18 Z M 6 5.390625 " clip-rule="nonzero"/></clipPath><clipPath id="id3"><path d="M 2.359375 5.390625 L 7 5.390625 L 7 23.535156 L 2.359375 23.535156 Z M 2.359375 5.390625 " clip-rule="nonzero"/></clipPath><clipPath id="id4"><path d="M 2.359375 9 L 7 9 L 7 20 L 2.359375 20 Z M 2.359375 9 " clip-rule="nonzero"/></clipPath><clipPath id="id5"><path d="M 2.359375 8 L 7 8 L 7 21 L 2.359375 21 Z M 2.359375 8 " clip-rule="nonzero"/></clipPath></defs><g clip-path="url(#id1)"><path fill="rgb(29.019165%, 65.098572%, 34.118652%)" d="M 6.597656 23.535156 L 24.933594 23.535156 C 26.492188 23.535156 27.753906 22.285156 27.753906 20.746094 L 27.753906 17.953125 L 6.597656 17.953125 Z M 6.597656 23.535156 " fill-opacity="1" fill-rule="nonzero"/></g><g clip-path="url(#id2)"><path fill="rgb(78.42865%, 19.219971%, 24.308777%)" d="M 24.933594 5.390625 L 6.597656 5.390625 L 6.597656 17.953125 L 27.753906 17.953125 L 27.753906 8.183594 C 27.753906 6.640625 26.492188 5.390625 24.933594 5.390625 Z M 24.933594 5.390625 " fill-opacity="1" fill-rule="nonzero"/></g><g clip-path="url(#id3)"><path fill="rgb(100%, 100%, 100%)" d="M 5.183594 5.390625 C 3.628906 5.390625 2.363281 6.640625 2.363281 8.183594 L 2.363281 20.746094 C 2.363281 22.285156 3.628906 23.535156 5.183594 23.535156 L 6.597656 23.535156 L 6.597656 5.390625 Z M 5.183594 5.390625 " fill-opacity="1" fill-rule="nonzero"/><path fill="rgb(78.42865%, 19.219971%, 24.308777%)" d="M 2.90625 22.269531 L 3.34375 21.496094 L 3.796875 22.292969 L 3.414062 22.902344 C 3.535156 23 3.664062 23.085938 3.796875 23.160156 L 4.355469 22.15625 L 3.355469 20.570312 L 2.566406 21.773438 C 2.695312 22.09375 2.886719 22.382812 3.117188 22.632812 Z M 6.582031 22.207031 L 5.527344 20.65625 L 4.46875 22.171875 L 5.375 23.535156 L 5.832031 23.535156 Z M 5.558594 21.496094 L 6.007812 22.292969 L 5.558594 23.011719 L 5.117188 22.269531 Z M 6.597656 14.695312 L 6.597656 14.070312 L 6.375 14.375 Z M 4.355469 6.804688 L 3.726562 5.804688 C 3.175781 6.132812 2.757812 6.640625 2.539062 7.25 L 3.445312 8.445312 Z M 2.90625 6.917969 L 3.34375 6.144531 L 3.796875 6.941406 L 3.34375 7.660156 Z M 5.621094 8.550781 L 6.582031 6.851562 L 5.585938 5.390625 L 5.464844 5.390625 L 4.46875 6.820312 Z M 6.007812 6.9375 L 5.558594 7.660156 L 5.117188 6.917969 L 5.558594 6.144531 Z M 6.007812 6.9375 " fill-opacity="1" fill-rule="nonzero"/></g><g clip-path="url(#id4)"><path fill="rgb(78.42865%, 19.219971%, 24.308777%)" d="M 5.855469 12.371094 L 6.472656 11.355469 L 6.597656 11.410156 L 6.597656 10.972656 L 5.605469 9.445312 L 4.414062 11.082031 L 3.355469 9.402344 L 2.363281 10.921875 L 2.363281 11.375 L 2.96875 12.371094 L 3.398438 11.746094 L 3.089844 11.324219 L 3.324219 11.015625 L 3.996094 11.878906 L 3.003906 13.492188 L 2.363281 12.621094 L 2.363281 13.707031 L 2.40625 13.652344 L 3.078125 14.511719 L 2.363281 15.675781 L 2.363281 16.496094 L 3.003906 15.625 L 3.996094 17.238281 L 3.4375 17.953125 L 3.324219 18.101562 L 3.210938 17.953125 L 3.089844 17.792969 L 3.398438 17.371094 L 2.972656 16.746094 L 2.363281 17.742188 L 2.363281 18.144531 L 3.378906 19.675781 L 4.367188 17.953125 L 4.402344 17.886719 L 4.445312 17.953125 L 5.582031 19.773438 L 6.597656 17.996094 L 6.597656 17.722656 L 6.507812 17.761719 L 5.890625 16.746094 L 5.460938 17.371094 L 5.769531 17.792969 L 5.648438 17.953125 L 5.539062 18.101562 L 5.421875 17.953125 L 4.867188 17.238281 L 5.855469 15.625 L 6.597656 16.628906 L 6.597656 15.832031 L 5.78125 14.507812 L 6.453125 13.644531 L 6.597656 13.835938 L 6.597656 12.441406 L 5.824219 13.492188 L 4.832031 11.878906 L 5.503906 11.019531 L 5.734375 11.324219 L 5.425781 11.746094 Z M 5.386719 13.785156 L 5.386719 15.132812 L 4.402344 16.667969 L 3.476562 15.125 L 3.476562 13.792969 L 4.402344 12.25 Z M 5.386719 13.785156 " fill-opacity="1" fill-rule="nonzero"/></g><g clip-path="url(#id5)"><path fill="rgb(78.42865%, 19.219971%, 24.308777%)" d="M 3.796875 13.640625 L 4.21875 14.402344 L 3.796875 15.164062 L 4.105469 15.332031 L 4.417969 14.765625 L 4.734375 15.332031 L 5.042969 15.164062 L 4.621094 14.402344 L 5.042969 13.640625 L 4.734375 13.472656 L 4.417969 14.039062 L 4.105469 13.472656 Z M 2.382812 20.175781 L 2.824219 20.917969 L 3.273438 20.199219 L 2.824219 19.402344 Z M 3.453125 20.175781 L 3.890625 20.917969 L 4.34375 20.199219 L 3.890625 19.402344 Z M 4.5 20.175781 L 4.9375 20.917969 L 5.390625 20.199219 L 4.9375 19.402344 Z M 5.621094 20.175781 L 6.0625 20.917969 L 6.511719 20.199219 L 6.0625 19.402344 Z M 2.382812 8.96875 L 2.824219 9.710938 L 3.273438 8.988281 L 2.824219 8.191406 Z M 3.453125 8.96875 L 3.890625 9.710938 L 4.34375 8.988281 L 3.890625 8.191406 Z M 4.5 8.96875 L 4.9375 9.710938 L 5.390625 8.988281 L 4.9375 8.191406 Z M 5.621094 8.96875 L 6.0625 9.710938 L 6.511719 8.988281 L 6.0625 8.191406 Z M 5.621094 8.96875 " fill-opacity="1" fill-rule="nonzero"/></g></svg>  