<svg width="25" height="24" viewBox="0 0 25 24" fill="none" xmlns="http://www.w3.org/2000/svg">
<path id="Vector" d="M12.9126 0C6.3006 0 0.912598 5.388 0.912598 12C0.912598 18.612 6.3006 24 12.9126 24C19.5246 24 24.9126 18.612 24.9126 12C24.9126 5.388 19.5246 0 12.9126 0ZM18.6486 9.24L11.8446 16.044C11.6766 16.212 11.4486 16.308 11.2086 16.308C10.9686 16.308 10.7406 16.212 10.5726 16.044L7.1766 12.648C6.8286 12.3 6.8286 11.724 7.1766 11.376C7.5246 11.028 8.1006 11.028 8.4486 11.376L11.2086 14.136L17.3766 7.968C17.7246 7.62 18.3006 7.62 18.6486 7.968C18.9966 8.316 18.9966 8.88 18.6486 9.24Z" fill="#A7F46A"/>
</svg>
