<svg width="764" height="768" viewBox="0 0 764 768" fill="none" xmlns="http://www.w3.org/2000/svg">
<path d="M682.786 445.762L682.729 446.037L682.934 446.229L743.59 503.093L688.4 609.849L609.209 592.702L608.942 592.644L608.749 592.838L609.103 593.191C608.749 592.838 608.749 592.838 608.748 592.838L608.748 592.839L608.744 592.842L608.731 592.855L608.679 592.908L608.473 593.114C608.292 593.295 608.025 593.562 607.683 593.904C606.998 594.588 606.01 595.573 604.796 596.779C602.368 599.19 599.04 602.48 595.435 606C588.219 613.047 579.917 620.992 575.513 624.648C570.803 628.537 560.843 635.616 552.042 641.735C547.645 644.792 543.543 647.605 540.54 649.654C539.039 650.678 537.812 651.511 536.961 652.088C536.536 652.377 536.204 652.601 535.979 652.754L535.722 652.927L535.657 652.972L535.64 652.983L535.636 652.985L535.635 652.986C535.635 652.986 535.635 652.986 535.915 653.401L535.635 652.986L535.413 653.136L535.415 653.405L536.112 740.395L458.38 766.535L412.824 695.878L412.674 695.645L412.397 695.649L412.404 696.149C412.397 695.649 412.397 695.649 412.396 695.649L412.395 695.649L412.39 695.649L412.37 695.649L412.29 695.65L411.975 695.655C411.698 695.658 411.291 695.663 410.769 695.669C409.724 695.681 408.216 695.697 406.369 695.713C402.674 695.745 397.619 695.775 392.177 695.772C381.281 695.763 368.866 695.617 362.691 695.065C356.957 694.554 345.495 692.57 335.442 690.709C330.421 689.779 325.759 688.882 322.353 688.216C320.65 687.884 319.26 687.609 318.297 687.418C317.815 687.322 317.44 687.247 317.185 687.196L316.895 687.138L316.821 687.123L316.803 687.12L316.798 687.119L316.797 687.118C316.797 687.118 316.797 687.118 316.698 687.608L316.797 687.118L316.521 687.063L316.331 687.269L259.271 749.017L154.616 694.913L172.006 612.508L172.064 612.233L171.86 612.041L171.517 612.405C171.86 612.041 171.859 612.041 171.859 612.04L171.858 612.04L171.855 612.036L171.841 612.023L171.786 611.971L171.571 611.768C171.382 611.59 171.103 611.327 170.746 610.989C170.033 610.313 169.004 609.338 167.747 608.14C165.232 605.745 161.802 602.459 158.138 598.899C150.803 591.771 142.557 583.566 138.84 579.192L138.839 579.191C134.804 574.464 127.498 564.416 121.189 555.529C118.037 551.09 115.138 546.947 113.027 543.914C111.971 542.398 111.113 541.159 110.518 540.299C110.221 539.869 109.99 539.534 109.833 539.307L109.654 539.047L109.609 538.981L109.597 538.965L109.594 538.961L109.594 538.959C109.593 538.959 109.593 538.959 109.181 539.243L109.593 538.959L109.436 538.731L109.16 538.743L25.1704 542.429L1.55309 463.894L72.9588 414.179L73.1793 414.026L73.1729 413.757L73.0772 413.759C73.1729 413.757 73.1729 413.757 73.1729 413.757L73.1729 413.756L73.1727 413.751L73.1723 413.731L73.1705 413.652L73.1634 413.342C73.1573 413.07 73.1484 412.669 73.1375 412.155C73.1155 411.127 73.0853 409.644 73.0518 407.826C72.985 404.191 72.9056 399.216 72.8554 393.86C72.7549 383.139 72.7718 370.919 73.2366 364.836L73.2367 364.835C73.658 359.121 75.3324 347.75 76.9056 337.786C77.6915 332.809 78.451 328.19 79.014 324.815C79.2955 323.128 79.5279 321.752 79.6899 320.798C79.7709 320.32 79.8343 319.949 79.8774 319.696L79.9266 319.409L79.9392 319.336L79.9424 319.317L79.9432 319.313L79.9434 319.312C79.9434 319.311 79.9434 319.311 79.4507 319.227L79.9434 319.311L79.9898 319.042L79.7882 318.858L20.0085 264.161L75.1526 157.493L156.575 174.117L156.85 174.173L157.041 173.967L157.006 173.935C157.041 173.967 157.041 173.967 157.042 173.967L157.042 173.966L157.046 173.963L157.059 173.949L157.111 173.893L157.314 173.674L157.543 173.429C157.695 173.266 157.88 173.068 158.096 172.837C158.773 172.112 159.751 171.068 160.952 169.79C163.354 167.236 166.649 163.75 170.218 160.025C177.366 152.569 185.594 144.178 189.984 140.37L189.985 140.369C194.697 136.26 204.745 128.797 213.634 122.349C218.074 119.128 222.219 116.165 225.254 114.007C226.772 112.928 228.012 112.05 228.872 111.442C229.302 111.138 229.638 110.902 229.865 110.741L230.125 110.559L230.191 110.512L230.208 110.5L230.212 110.497L230.213 110.497C230.213 110.497 230.213 110.497 230.174 110.441L230.213 110.497L230.434 110.341L230.425 110.071L227.667 25.4639L305.865 0.823129L354.45 72.2054L354.605 72.433L354.88 72.4237L354.863 71.924C354.88 72.4237 354.88 72.4237 354.88 72.4237L354.882 72.4237L354.887 72.4235L354.906 72.4229L354.985 72.4203L355.292 72.4102C355.562 72.4014 355.96 72.3886 356.471 72.3726C357.492 72.3407 358.965 72.2958 360.77 72.2444C364.38 72.1416 369.319 72.0124 374.636 71.9072C385.28 71.6966 397.408 71.5825 403.434 71.9636C409.099 72.3268 420.362 73.8993 430.231 75.3853C435.16 76.1275 439.734 76.847 443.076 77.3809C444.747 77.6479 446.11 77.8684 447.055 78.0222C447.361 78.0721 447.623 78.115 447.838 78.1501L448.145 78.2003L448.429 78.2471L448.502 78.259L448.52 78.262L448.525 78.2628L448.526 78.263C448.526 78.263 448.526 78.2631 448.608 77.7697L448.526 78.2631L448.796 78.3076L448.979 78.1046L504.853 16.1612L610.43 70.7417L592.198 152.145L592.139 152.412L592.331 152.606L592.686 152.254C592.331 152.606 592.331 152.606 592.331 152.606L592.332 152.607L592.335 152.61L592.348 152.623L592.4 152.676L592.603 152.881C592.71 152.99 592.849 153.13 593.016 153.3L593.378 153.667C594.05 154.349 595.018 155.334 596.202 156.543C598.57 158.96 601.802 162.276 605.258 165.869C612.176 173.062 619.971 181.342 623.544 185.754L623.932 185.439L623.544 185.754C627.353 190.457 634.28 200.422 640.266 209.23C643.256 213.63 646.008 217.735 648.012 220.74C649.014 222.243 649.829 223.47 650.393 224.322L650.693 224.775C650.835 224.989 650.953 225.167 651.044 225.305L651.214 225.562L651.257 225.627L651.268 225.644L651.27 225.648L651.271 225.649C651.271 225.649 651.271 225.649 651.689 225.374L651.271 225.649L651.423 225.879L651.698 225.874L738.001 224.225L763.112 302.273L692.502 348.914L692.277 349.063L692.278 349.333L692.778 349.331C692.278 349.333 692.278 349.333 692.278 349.333L692.278 349.334L692.278 349.34L692.278 349.36L692.278 349.441L692.279 349.758C692.28 350.037 692.28 350.447 692.281 350.973C692.282 352.026 692.281 353.545 692.278 355.407C692.27 359.13 692.247 364.224 692.187 369.709C692.065 380.689 691.794 393.204 691.195 399.442C690.612 405.219 688.512 416.788 686.554 426.937C685.575 432.006 684.633 436.712 683.936 440.152C683.587 441.871 683.3 443.274 683.1 444.247C682.999 444.733 682.921 445.112 682.868 445.369L682.807 445.662L682.792 445.737L682.788 445.756L682.787 445.761L682.786 445.762C682.786 445.762 682.786 445.762 683.276 445.864L682.786 445.762ZM538.196 43.6651L537.752 43.4355L537.523 43.8797L460.027 193.784L459.797 194.228L460.241 194.457L490.785 210.248L491.229 210.477L491.459 210.033L568.954 60.129L569.184 59.6849L568.74 59.4553L538.196 43.6651ZM195.037 306.71L195.481 306.939L195.711 306.495L211.055 276.815L211.284 276.371L210.84 276.141L63.7656 200.108L63.3214 199.878L63.0918 200.323L47.748 230.003L47.5184 230.447L47.9626 230.677L195.037 306.71ZM196.709 705.77L196.479 706.214L196.923 706.444L225.14 721.031L225.584 721.26L225.813 720.816L304.147 569.291L304.377 568.847L303.933 568.618L275.716 554.031L275.272 553.801L275.043 554.245L196.709 705.77ZM534.896 496.695L535.275 496.784L535.454 496.438L563.717 441.838L563.896 441.493L563.605 441.234L531.533 412.785C531.556 412.694 531.584 412.582 531.616 412.451C531.659 412.282 531.71 412.08 531.767 411.851C531.846 411.535 531.938 411.166 532.04 410.753C532.394 409.326 532.873 407.373 533.375 405.268C534.378 401.068 535.48 396.234 535.852 393.785C536.224 391.339 536.654 386.264 536.99 381.821C537.158 379.596 537.304 377.522 537.407 376.004C537.458 375.246 537.5 374.626 537.528 374.196C537.54 374.014 537.549 373.866 537.557 373.755L573.059 347.148L573.341 346.936L573.237 346.599L556.794 293.763L556.686 293.415L556.321 293.412L509.664 293.029C509.615 292.96 509.555 292.875 509.484 292.775C509.272 292.478 508.967 292.049 508.591 291.525C507.84 290.475 506.806 289.038 505.675 287.491C503.419 284.404 500.763 280.853 499.208 279.067L499.207 279.066C497.847 277.513 494.79 274.469 492.089 271.828C490.735 270.504 489.465 269.276 488.533 268.38C488.068 267.931 487.687 267.566 487.422 267.312L487.21 267.109L496.344 223.576L496.422 223.204L496.084 223.029L445.294 196.772L444.981 196.611L444.724 196.851L412.415 226.944C412.322 226.927 412.205 226.906 412.065 226.881C411.682 226.811 411.129 226.712 410.452 226.591C409.097 226.35 407.242 226.024 405.242 225.686C401.251 225.012 396.653 224.286 394.31 224.095C391.965 223.903 387.17 223.913 382.987 223.969C380.89 223.997 378.938 224.037 377.51 224.07C376.796 224.087 376.214 224.101 375.809 224.112C375.661 224.116 375.536 224.119 375.438 224.122L350.753 191.02L350.538 190.732L350.197 190.843L297.582 207.978L297.252 208.086L297.237 208.433L295.391 252.43C295.303 252.496 295.186 252.583 295.043 252.69C294.698 252.949 294.201 253.321 293.593 253.779C292.377 254.696 290.717 255.953 288.941 257.318C285.399 260.041 281.369 263.213 279.502 264.948L279.501 264.949C277.339 266.975 273.403 271.191 270.02 274.885C268.326 276.735 266.766 278.46 265.629 279.721C265.473 279.896 265.324 280.061 265.184 280.217C264.817 280.625 264.51 280.966 264.278 281.225C264.17 281.346 264.078 281.449 264.004 281.532L225.692 267.875L225.28 267.729L225.08 268.117L197.957 320.58L197.785 320.914L198.057 321.172L229.473 350.992C229.445 351.099 229.411 351.235 229.37 351.398C229.326 351.568 229.276 351.767 229.219 351.992C229.128 352.352 229.021 352.778 228.901 353.257C228.51 354.817 227.983 356.946 227.435 359.223C226.342 363.765 225.159 368.937 224.832 371.341C224.504 373.746 224.315 378.58 224.207 382.784C224.152 384.892 224.118 386.851 224.098 388.284C224.088 389 224.081 389.584 224.077 389.99C224.075 390.135 224.074 390.257 224.073 390.355L188.674 413.55L188.361 413.755L188.469 414.113L205.866 471.663L205.982 472.049L206.384 472.017L249.04 468.664C249.088 468.741 249.146 468.833 249.213 468.941C249.427 469.283 249.736 469.776 250.115 470.378C250.874 471.581 251.914 473.221 253.04 474.964C255.284 478.439 257.894 482.366 259.288 484.055L259.29 484.058C261.057 486.162 264.749 489.779 267.978 492.852C269.596 494.392 271.106 495.802 272.21 496.827C272.763 497.34 273.214 497.756 273.527 498.044L273.661 498.167L273.826 498.319L268.779 540.26L268.738 540.605L269.046 540.764L318.992 566.585L319.334 566.761L319.592 566.476L346.682 536.608L347.061 536.648C347.466 536.691 348.051 536.752 348.767 536.825C350.2 536.972 352.161 537.169 354.274 537.372C358.494 537.776 363.341 538.202 365.789 538.282C368.236 538.362 373.136 538.272 377.409 538.163C379.549 538.108 381.537 538.049 382.99 538.003C383.716 537.98 384.309 537.96 384.72 537.946L385.092 537.934L412.665 576.775L412.895 577.099L413.263 576.949L465.622 555.46L465.951 555.325L465.931 554.969L463.453 512.035C463.547 511.978 463.665 511.907 463.804 511.823C464.195 511.586 464.756 511.245 465.443 510.826C466.816 509.988 468.688 508.84 470.685 507.596C474.668 505.115 479.176 502.238 481.18 500.705C483.185 499.172 486.867 495.828 490.031 492.886C491.617 491.411 493.078 490.031 494.144 489.02C494.676 488.514 495.11 488.101 495.41 487.813C495.519 487.71 495.61 487.622 495.682 487.553L534.896 496.695ZM699.602 567.593L700.046 567.822L700.276 567.378L715.635 537.668L715.865 537.224L715.42 536.995L565.117 459.292L564.673 459.062L564.443 459.507L549.084 489.216L548.854 489.66L549.299 489.89L699.602 567.593Z" stroke="#B7B8BA" stroke-opacity="0.5"/>
</svg>
