<svg width="481" height="463" viewBox="0 0 481 463" fill="none" xmlns="http://www.w3.org/2000/svg">
<path d="M456.021 147.906L456.096 148.177L456.366 148.253L510.5 163.596V244.907L457.571 259.218L457.307 259.289L457.225 259.55L457.701 259.701C457.225 259.55 457.225 259.55 457.225 259.55L457.224 259.551L457.223 259.554L457.22 259.566L457.204 259.614L457.145 259.802L457.072 260.03C457.028 260.168 456.976 260.333 456.915 260.524C456.715 261.15 456.427 262.052 456.071 263.157C455.36 265.366 454.379 268.387 453.304 271.632C451.151 278.13 448.627 285.499 447.115 289.068C445.492 292.873 441.7 300.239 438.302 306.672C436.606 309.885 435.011 312.859 433.84 315.029C433.623 315.432 433.42 315.807 433.234 316.151C432.919 316.734 432.652 317.226 432.443 317.612L432.188 318.08L432.058 318.319L431.958 318.503L431.932 318.55L431.926 318.562L431.924 318.565L431.924 318.566C431.924 318.566 431.924 318.566 432.362 318.806L431.924 318.566L431.795 318.802L431.92 319.039L459.378 371.159L420.859 410.968L371.518 382.634L371.277 382.496L371.033 382.626L371.269 383.067C371.033 382.626 371.033 382.626 371.033 382.627L371.032 382.627L371.029 382.629L371.017 382.635L370.969 382.661L370.781 382.761C370.615 382.849 370.372 382.979 370.059 383.146C369.433 383.479 368.53 383.958 367.422 384.543C365.207 385.714 362.171 387.307 358.892 389.001C352.324 392.392 344.805 396.169 340.922 397.758L341.111 398.221L340.921 397.758C337.317 399.233 329.802 401.607 323.164 403.619C319.85 404.623 316.762 405.535 314.503 406.195C313.374 406.525 312.452 406.793 311.812 406.977C311.492 407.07 311.243 407.142 311.073 407.19L310.881 407.246L310.832 407.26L310.819 407.263L310.816 407.264L310.815 407.264C310.815 407.264 310.815 407.264 310.852 407.392L310.815 407.264L310.545 407.342L310.471 407.612L295.359 462.5H215.707L200.552 407.522L200.477 407.251L200.207 407.174L200.069 407.655C200.207 407.174 200.207 407.174 200.207 407.174L200.206 407.174L200.203 407.173L200.19 407.17L200.141 407.155L199.948 407.1C199.779 407.051 199.529 406.98 199.209 406.887C198.569 406.702 197.646 406.435 196.516 406.105C194.255 405.444 191.166 404.533 187.85 403.529C181.209 401.517 173.695 399.143 170.101 397.668L170.1 397.668C166.205 396.079 158.682 392.302 152.111 388.911C148.83 387.217 145.794 385.624 143.578 384.453C142.47 383.868 141.567 383.389 140.941 383.056C140.628 382.889 140.385 382.759 140.219 382.671L140.031 382.571L139.983 382.545L139.971 382.539L139.968 382.537L139.967 382.536C139.967 382.536 139.967 382.536 139.731 382.977L139.967 382.536L139.723 382.406L139.482 382.544L90.141 410.878L51.6224 371.069L79.1021 318.949L79.2273 318.711L79.0985 318.476L78.6598 318.716C79.0985 318.476 79.0984 318.476 79.0983 318.476L79.0979 318.475L79.0963 318.472L79.0899 318.46L79.0642 318.413L78.9635 318.229C78.8751 318.067 78.7451 317.828 78.5784 317.521C78.2449 316.908 77.7649 316.024 77.1788 314.939C76.0064 312.768 74.4096 309.795 72.7116 306.582C69.311 300.149 65.519 292.783 63.9079 288.979L63.9074 288.978C62.3848 285.41 59.8543 278.04 57.6983 271.542C56.6219 268.297 55.641 265.276 54.9293 263.067C54.5734 261.962 54.2849 261.06 54.0853 260.434C53.9855 260.121 53.908 259.878 53.8554 259.712L53.7956 259.524L53.7804 259.476L53.7765 259.464L53.7756 259.461L53.7753 259.46C53.7753 259.46 53.7753 259.46 53.2986 259.611L53.7753 259.46L53.6928 259.199L53.4291 259.128L0.5 244.817V163.574L54.6118 148.253L54.8819 148.177L54.9572 147.906L54.4756 147.772C54.9572 147.906 54.9572 147.906 54.9573 147.906L54.9575 147.905L54.9584 147.902L54.9619 147.89L54.9758 147.84L55.0304 147.645C55.0784 147.473 55.1491 147.221 55.2403 146.897C55.4226 146.249 55.6864 145.314 56.012 144.17C56.6634 141.882 57.5623 138.755 58.5528 135.397C60.5367 128.673 62.8785 121.058 64.334 117.403L64.3345 117.401C65.8902 113.464 69.6154 105.841 72.9633 99.1815C74.6349 95.8566 76.2089 92.7789 77.3649 90.5325C77.9429 89.4093 78.4164 88.494 78.7454 87.8595C78.9099 87.5423 79.0382 87.2953 79.1254 87.1276L79.2247 86.9368L79.2501 86.8881L79.2565 86.8759L79.2581 86.8728L79.2585 86.872C79.2586 86.8719 79.2586 86.8718 78.8153 86.6406L79.2586 86.8718L79.3834 86.6324L79.2518 86.3967L51.2994 36.3588L90.5633 -2.69516L141.958 25.138L142.2 25.2692L142.441 25.1345L142.196 24.6983C142.441 25.1345 142.441 25.1344 142.441 25.1343L142.442 25.1339L142.445 25.1323L142.456 25.1257L142.503 25.0997L142.685 24.9979C142.845 24.9084 143.08 24.7768 143.383 24.608C143.988 24.2705 144.861 23.7846 145.932 23.1912C148.075 22.0043 151.01 20.3874 154.18 18.6672C160.528 15.2223 167.792 11.3776 171.534 9.73256C175.052 8.18925 182.32 5.62948 188.73 3.4491C191.93 2.3605 194.909 1.36887 197.088 0.649368C198.178 0.289631 199.067 -0.00204849 199.684 -0.203773C199.993 -0.304634 200.233 -0.383003 200.397 -0.436146L200.582 -0.496593L200.63 -0.511986L200.642 -0.515862L200.645 -0.51683L200.645 -0.517071C200.646 -0.517082 200.646 -0.517094 200.643 -0.526123L200.646 -0.517147L200.906 -0.601475L200.975 -0.865837L215.312 -55.5H295.666L310.003 -0.865837L310.072 -0.601475L310.332 -0.517147L310.486 -0.992752C310.332 -0.517147 310.332 -0.51712 310.332 -0.517071L310.333 -0.51683L310.336 -0.515862L310.348 -0.511986L310.395 -0.496593L310.581 -0.436146L310.803 -0.36393C310.939 -0.319508 311.103 -0.265907 311.293 -0.203773C311.91 -0.00204849 312.8 0.289631 313.889 0.649368C316.069 1.36887 319.048 2.3605 322.248 3.4491C328.658 5.62948 335.926 8.18925 339.444 9.73256L339.645 9.27467L339.444 9.7326C343.197 11.3774 350.467 15.2222 356.818 18.6672C359.989 20.3874 362.924 22.0043 365.067 23.1912C366.139 23.7846 367.012 24.2705 367.617 24.608C367.92 24.7768 368.155 24.9084 368.315 24.9979L368.497 25.0997L368.544 25.1257L368.555 25.1323L368.558 25.1339L368.559 25.1343C368.559 25.1344 368.559 25.1344 368.572 25.1109L368.559 25.1345L368.8 25.2692L369.042 25.1379L420.415 -2.69511L459.678 36.3588L431.726 86.3741L431.594 86.6096L431.719 86.8489L432.163 86.6181C431.719 86.8489 431.719 86.849 431.719 86.8492L431.72 86.8499L431.721 86.853L431.728 86.8653L431.753 86.9139L431.852 87.1048C431.939 87.2724 432.067 87.5195 432.231 87.8367C432.56 88.4712 433.033 89.3865 433.61 90.5097C434.765 92.7563 436.337 95.834 438.009 99.159C441.357 105.818 445.088 113.442 446.666 117.381C448.111 121.038 450.447 128.657 452.428 135.386C453.417 138.746 454.315 141.876 454.966 144.167C455.292 145.312 455.555 146.247 455.738 146.896C455.829 147.22 455.899 147.473 455.947 147.644L456.002 147.84L456.016 147.89L456.019 147.902L456.02 147.905L456.021 147.906C456.021 147.906 456.021 147.906 456.502 147.772L456.021 147.906ZM243.841 -49.6325H243.341V-49.1325V65.3852V65.8852H243.841H267.159H267.659V65.3852V-49.1325V-49.6325H267.159H243.841ZM119.033 216.204H119.533V215.704V193.03V192.53H119.033H6.75114H6.25114V193.03V215.704V216.204H6.75114H119.033ZM244.163 456.088V456.588H244.663H266.204H266.704V456.088V340.331V339.831H266.204H244.663H244.163V340.331V456.088ZM382.984 224.812L383.361 224.717L383.361 224.328L383.384 182.605L383.384 182.216L383.007 182.12L354.92 174.99L354.888 174.857C354.824 174.582 354.73 174.186 354.614 173.701C354.383 172.73 354.064 171.403 353.711 169.977C353.007 167.134 352.163 163.87 351.622 162.27C351.082 160.672 349.758 157.473 348.578 154.692C347.986 153.297 347.427 152.001 347.017 151.054C346.811 150.581 346.643 150.194 346.526 149.926L346.436 149.719L359.505 122.682L359.658 122.364L359.411 122.113L333.05 95.386L332.794 95.1261L332.468 95.2912L304.315 109.563L304.2 109.504C303.98 109.391 303.663 109.228 303.273 109.028C302.493 108.63 301.422 108.086 300.258 107.505C297.939 106.347 295.227 105.031 293.726 104.436L293.725 104.436C292.415 103.921 289.618 103.037 287.17 102.287C285.942 101.911 284.794 101.566 283.953 101.316C283.533 101.191 283.19 101.089 282.951 101.019L282.846 100.988L274.814 71.9841L274.713 71.6176H274.332H235.557H235.205L235.087 71.9492L225.022 100.083L224.869 100.131C224.616 100.208 224.252 100.32 223.806 100.459C222.914 100.736 221.695 101.117 220.384 101.537C217.772 102.374 214.769 103.372 213.29 103.99C211.809 104.609 208.916 106.113 206.416 107.449C205.16 108.12 203.997 108.753 203.146 109.218C202.721 109.45 202.375 109.641 202.134 109.773L201.987 109.855L176.881 97.6293L176.559 97.4721L176.307 97.7277L149.946 124.455L149.702 124.702L149.848 125.016L162.407 152.046L162.312 152.242C162.262 152.346 162.203 152.467 162.137 152.604C162.034 152.817 161.913 153.068 161.777 153.351C161.329 154.283 160.721 155.559 160.076 156.935C158.791 159.679 157.347 162.854 156.76 164.491L156.76 164.492C156.086 166.394 155.026 170.168 154.139 173.448C153.694 175.092 153.291 176.618 152.999 177.733C152.854 178.291 152.736 178.746 152.654 179.061L152.611 179.227L125.384 182.92L124.952 182.979V183.415V223.494V223.87L125.312 223.975L153.434 232.134L153.477 232.319C153.547 232.621 153.649 233.056 153.774 233.587C154.025 234.649 154.37 236.097 154.749 237.641C155.505 240.717 156.405 244.213 156.96 245.773C157.515 247.335 158.911 250.317 160.154 252.882C160.778 254.171 161.368 255.363 161.802 256.233C161.901 256.432 161.992 256.613 162.073 256.776C162.17 256.969 162.253 257.135 162.321 257.269L162.394 257.413L148.334 282.354L148.151 282.68L148.411 282.948L176.814 312.219L177.095 312.508L177.437 312.296L202.007 297.032L202.113 297.095C202.216 297.156 202.338 297.228 202.477 297.31C202.658 297.418 202.87 297.542 203.105 297.681C203.937 298.17 205.075 298.834 206.297 299.535C208.728 300.929 211.533 302.488 212.909 303.076L212.913 303.078C214.642 303.8 218.002 304.832 220.902 305.678C222.358 306.102 223.707 306.482 224.692 306.755C224.868 306.805 225.033 306.85 225.185 306.892C225.457 306.967 225.686 307.03 225.865 307.079C225.935 307.098 225.997 307.115 226.051 307.13L236.044 333.909L236.165 334.234H236.512H274.643H275.028L275.126 333.862L282.123 307.493L282.288 307.429C282.464 307.36 282.694 307.27 282.966 307.163C283.092 307.113 283.228 307.06 283.371 307.004C284.281 306.645 285.524 306.153 286.86 305.617C289.527 304.546 292.585 303.29 294.09 302.573C295.594 301.856 298.522 300.272 301.061 298.875C302.334 298.175 303.513 297.52 304.374 297.039C304.805 296.799 305.156 296.602 305.4 296.466L305.544 296.385L334.175 311.167L334.528 311.349L334.785 311.046L359.636 281.775L359.866 281.503L359.685 281.197L344.87 256.17L344.965 256.015C345.127 255.751 345.359 255.37 345.642 254.903C346.209 253.97 346.979 252.693 347.795 251.321C349.42 248.587 351.244 245.44 351.979 243.882C352.713 242.325 353.892 239.154 354.881 236.396C355.377 235.012 355.828 233.724 356.155 232.782C356.319 232.311 356.451 231.927 356.543 231.66L356.598 231.501L382.984 224.812ZM504.249 216.226H504.749V215.726V193.03V192.53H504.249H389.501H389.001V193.03V215.726V216.226H389.501H504.249Z" stroke="white"/>
</svg>
