<svg width="511" height="519" viewBox="0 0 511 519" fill="none" xmlns="http://www.w3.org/2000/svg">
<path d="M456.021 203.906L456.096 204.177L456.366 204.253L510.5 219.596V300.907L457.571 315.218L457.307 315.289L457.225 315.55L457.701 315.701C457.225 315.55 457.225 315.55 457.225 315.55L457.224 315.551L457.223 315.554L457.22 315.566L457.204 315.614L457.145 315.802C457.092 315.968 457.014 316.212 456.915 316.524C456.715 317.15 456.427 318.052 456.071 319.157C455.36 321.366 454.379 324.387 453.304 327.632C451.151 334.13 448.627 341.499 447.115 345.068C445.492 348.873 441.7 356.239 438.302 362.672C436.606 365.885 435.011 368.859 433.84 371.029C433.255 372.114 432.776 372.999 432.443 373.612C432.276 373.918 432.146 374.157 432.058 374.319L431.958 374.503L431.932 374.55L431.926 374.562L431.924 374.565L431.924 374.566C431.924 374.566 431.924 374.566 432.362 374.806L431.924 374.566L431.795 374.802L431.92 375.039L459.378 427.159L420.859 466.968L371.518 438.634L371.277 438.496L371.033 438.626L371.269 439.067C371.033 438.626 371.033 438.626 371.033 438.627L371.032 438.627L371.029 438.629L371.017 438.635L370.969 438.661L370.781 438.761C370.684 438.813 370.562 438.878 370.414 438.957L370.059 439.146C369.433 439.479 368.53 439.958 367.423 440.543C365.207 441.714 362.171 443.307 358.892 445.001C352.324 448.392 344.806 452.169 340.922 453.758L341.111 454.221L340.921 453.758C337.317 455.233 329.802 457.607 323.164 459.619C319.85 460.623 316.762 461.535 314.503 462.195C313.374 462.525 312.452 462.793 311.812 462.977C311.492 463.07 311.243 463.142 311.074 463.19L310.881 463.246L310.832 463.26L310.819 463.263L310.816 463.264L310.815 463.264C310.815 463.264 310.815 463.264 310.953 463.745L310.815 463.264L310.545 463.342L310.471 463.612L295.359 518.5H215.707L200.552 463.522L200.477 463.251L200.207 463.174L200.069 463.655C200.207 463.174 200.207 463.174 200.207 463.174L200.206 463.174L200.203 463.173L200.19 463.17L200.141 463.155L199.948 463.1L199.717 463.034C199.576 462.993 199.406 462.944 199.209 462.887C198.569 462.702 197.646 462.435 196.516 462.105C194.255 461.444 191.166 460.533 187.85 459.529C181.209 457.517 173.695 455.143 170.101 453.668L170.1 453.668C166.205 452.079 158.682 448.302 152.111 444.911C148.83 443.217 145.794 441.624 143.578 440.453C142.47 439.868 141.567 439.389 140.941 439.056C140.628 438.889 140.385 438.759 140.219 438.671L140.031 438.571L139.983 438.545L139.971 438.539L139.968 438.537L139.967 438.536C139.967 438.536 139.967 438.536 139.731 438.977L139.967 438.536L139.723 438.406L139.482 438.544L90.141 466.878L51.6225 427.069L79.1021 374.949L79.2273 374.711L79.0985 374.476L78.6598 374.716C79.0985 374.476 79.0984 374.476 79.0984 374.476L79.0979 374.475L79.0963 374.472L79.0899 374.46L79.0642 374.413L78.9635 374.229C78.8751 374.067 78.7451 373.828 78.5784 373.521C78.2449 372.908 77.7649 372.024 77.1788 370.939C76.0064 368.768 74.4096 365.795 72.7116 362.582C69.311 356.149 65.519 348.784 63.9079 344.979L63.9074 344.978C62.3848 341.41 59.8543 334.04 57.6983 327.542C56.6219 324.297 55.641 321.276 54.9293 319.067C54.5734 317.962 54.2849 317.06 54.0853 316.434C53.9855 316.121 53.908 315.878 53.8554 315.712L53.7956 315.524L53.7804 315.476L53.7765 315.464L53.7756 315.461L53.7753 315.46C53.7753 315.46 53.7753 315.46 53.2986 315.611L53.7753 315.46L53.6928 315.199L53.4291 315.128L0.5 300.817V219.574L54.6118 204.253L54.8819 204.177L54.9572 203.906L54.8535 203.877C54.9572 203.906 54.9573 203.906 54.9573 203.906L54.9575 203.905L54.9584 203.902L54.9619 203.89L54.9758 203.84L55.0304 203.645C55.0784 203.473 55.1491 203.221 55.2403 202.897C55.4226 202.249 55.6864 201.314 56.012 200.17C56.6634 197.882 57.5623 194.755 58.5528 191.397C60.5367 184.673 62.8785 177.058 64.334 173.403L64.3345 173.401C65.8902 169.464 69.6154 161.841 72.9633 155.182C74.6349 151.857 76.2089 148.779 77.3649 146.532C77.9429 145.409 78.4164 144.494 78.7454 143.859C78.9099 143.542 79.0382 143.295 79.1254 143.128L79.2247 142.937L79.2501 142.888L79.2565 142.876L79.2581 142.873L79.2585 142.872C79.2586 142.872 79.2586 142.872 78.8153 142.641L79.2586 142.872L79.3834 142.632L79.2518 142.397L51.2994 92.3588L90.5633 53.3048L141.958 81.138L142.2 81.2692L142.441 81.1345L142.196 80.6983C142.441 81.1345 142.441 81.1344 142.441 81.1343L142.442 81.1339L142.445 81.1323L142.456 81.1257L142.503 81.0997L142.685 80.9979C142.845 80.9084 143.08 80.7768 143.383 80.608C143.988 80.2705 144.861 79.7846 145.932 79.1912C148.075 78.0043 151.01 76.3874 154.18 74.6672C160.528 71.2222 167.793 67.3773 171.534 65.7324C175.053 64.1891 182.32 61.6294 188.73 59.4491C191.93 58.3605 194.909 57.3689 197.088 56.6494C198.178 56.2896 199.067 55.998 199.684 55.7962C199.993 55.6954 200.233 55.617 200.397 55.5639L200.582 55.5034L200.63 55.488L200.642 55.4841L200.645 55.4832L200.645 55.4829C200.646 55.4829 200.646 55.4829 200.64 55.4659L200.646 55.4829L200.906 55.3985L200.975 55.1342L215.312 0.5H295.666L310.003 55.1342L310.072 55.3985L310.332 55.4829L310.486 55.0072C310.332 55.4829 310.332 55.4829 310.332 55.4829L310.333 55.4832L310.336 55.4841L310.348 55.488L310.395 55.5034L310.581 55.5639L310.791 55.6321C310.929 55.6773 311.098 55.7323 311.293 55.7962C311.91 55.998 312.8 56.2896 313.889 56.6494C316.069 57.3689 319.048 58.3605 322.248 59.4491C328.658 61.6295 335.926 64.1893 339.444 65.7326L339.645 65.2747L339.444 65.7326C343.197 67.3774 350.467 71.2222 356.818 74.6672C359.989 76.3874 362.924 78.0043 365.067 79.1912C366.139 79.7846 367.012 80.2705 367.617 80.608C367.92 80.7768 368.155 80.9084 368.315 80.9979L368.497 81.0997L368.544 81.1257L368.555 81.1323L368.558 81.1339L368.559 81.1343C368.559 81.1344 368.559 81.1345 368.804 80.6983L368.559 81.1345L368.8 81.2692L369.042 81.1379L420.415 53.3049L459.678 92.3588L431.726 142.374L431.594 142.61L431.719 142.849L432.163 142.618C431.719 142.849 431.719 142.849 431.719 142.849L431.72 142.85L431.721 142.853L431.728 142.865L431.753 142.914L431.852 143.105C431.939 143.272 432.067 143.519 432.231 143.837C432.56 144.471 433.033 145.387 433.61 146.51C434.765 148.756 436.337 151.834 438.009 155.159C441.356 161.817 445.088 169.441 446.666 173.38C448.111 177.037 450.447 184.657 452.428 191.386C453.417 194.746 454.315 197.876 454.966 200.167C455.292 201.312 455.555 202.247 455.738 202.896C455.829 203.22 455.899 203.473 455.947 203.644L456.002 203.84L456.016 203.89L456.019 203.902L456.02 203.905L456.021 203.906C456.021 203.906 456.021 203.906 456.502 203.772L456.021 203.906ZM243.841 6.36746H243.341V6.86746V121.385V121.885H243.841H267.159H267.659V121.385V6.86746V6.36746H267.159H243.841ZM119.033 272.204H119.533V271.704V249.03V248.53H119.033H6.75114H6.25114V249.03V271.704V272.204H6.75114H119.033ZM244.163 512.088V512.588H244.663H266.204H266.704V512.088V396.331V395.831H266.204H244.663H244.163V396.331V512.088ZM382.984 280.812L383.361 280.717L383.361 280.328L383.384 238.605L383.384 238.216L383.007 238.12L354.92 230.99L354.888 230.857C354.824 230.582 354.73 230.186 354.614 229.701C354.383 228.73 354.064 227.403 353.711 225.977C353.007 223.134 352.163 219.87 351.622 218.27C351.082 216.672 349.758 213.473 348.578 210.692C347.986 209.297 347.427 208.001 347.017 207.054C346.917 206.824 346.826 206.615 346.745 206.429C346.66 206.233 346.586 206.064 346.526 205.926L346.436 205.719L359.505 178.682L359.658 178.364L359.411 178.113L333.05 151.386L332.794 151.126L332.468 151.291L304.315 165.563L304.2 165.504C303.98 165.391 303.663 165.228 303.273 165.028C302.493 164.63 301.422 164.086 300.258 163.505C297.939 162.347 295.227 161.031 293.726 160.436L293.725 160.436C292.415 159.921 289.618 159.037 287.17 158.287C285.942 157.911 284.794 157.566 283.953 157.316C283.533 157.191 283.19 157.089 282.951 157.019L282.846 156.988L274.814 127.984L274.713 127.618H274.332H235.557H235.205L235.087 127.949L225.022 156.083L224.869 156.131C224.616 156.208 224.252 156.32 223.806 156.459C222.914 156.736 221.695 157.117 220.384 157.537C217.772 158.374 214.769 159.372 213.29 159.99C211.809 160.609 208.916 162.113 206.416 163.449C205.16 164.12 203.997 164.753 203.146 165.218C202.721 165.45 202.375 165.641 202.134 165.773L201.987 165.855L176.881 153.629L176.559 153.472L176.307 153.728L149.946 180.455L149.702 180.702L149.848 181.016L162.407 208.046L162.312 208.242C162.184 208.506 162.001 208.885 161.777 209.351C161.329 210.283 160.721 211.559 160.076 212.935C158.791 215.679 157.347 218.854 156.76 220.491L156.76 220.492C156.086 222.394 155.026 226.168 154.139 229.448C153.694 231.092 153.291 232.618 152.999 233.733C152.854 234.291 152.736 234.746 152.654 235.061L152.611 235.227L125.384 238.92L124.952 238.979V239.415V279.494V279.87L125.312 279.975L153.434 288.134L153.477 288.319C153.547 288.621 153.649 289.056 153.774 289.587C154.025 290.649 154.37 292.097 154.749 293.641C155.505 296.717 156.405 300.213 156.96 301.773C157.515 303.335 158.911 306.317 160.154 308.882C160.778 310.171 161.368 311.363 161.802 312.233C162.019 312.668 162.197 313.023 162.321 313.269L162.394 313.414L148.334 338.354L148.151 338.68L148.411 338.948L176.814 368.219L177.095 368.508L177.437 368.296L202.007 353.032L202.113 353.095C202.216 353.156 202.338 353.228 202.477 353.31C202.658 353.418 202.87 353.542 203.105 353.681C203.937 354.17 205.075 354.834 206.297 355.535C208.728 356.929 211.533 358.488 212.909 359.076L212.913 359.078C214.642 359.8 218.002 360.832 220.902 361.678C222.358 362.102 223.707 362.482 224.692 362.755C225.185 362.892 225.586 363.003 225.865 363.079C225.935 363.098 225.997 363.115 226.051 363.13L236.044 389.909L236.165 390.234H236.512H274.643H275.028L275.126 389.862L282.123 363.493L282.288 363.429C282.546 363.328 282.917 363.183 283.371 363.004C284.281 362.645 285.524 362.153 286.86 361.617C289.527 360.546 292.585 359.29 294.09 358.573C295.594 357.856 298.522 356.272 301.061 354.875C302.334 354.175 303.513 353.52 304.374 353.039C304.805 352.799 305.156 352.602 305.4 352.466L305.544 352.385L334.175 367.167L334.528 367.349L334.785 367.046L359.636 337.775L359.866 337.503L359.685 337.197L344.87 312.17L344.965 312.015C345.127 311.751 345.359 311.37 345.642 310.903C346.209 309.97 346.979 308.693 347.795 307.321C349.42 304.587 351.244 301.44 351.979 299.882C352.713 298.325 353.892 295.154 354.881 292.396C355.377 291.012 355.828 289.724 356.155 288.782C356.235 288.552 356.308 288.342 356.372 288.157C356.439 287.963 356.496 287.796 356.543 287.66L356.598 287.501L382.984 280.812ZM504.249 272.226H504.749V271.726V249.03V248.53H504.249H389.501H389.001V249.03V271.726V272.226H389.501H504.249Z" stroke="white"/>
</svg>
