<svg width="55" height="53" viewBox="0 0 55 53" fill="none" xmlns="http://www.w3.org/2000/svg">
<path d="M36.7627 23.9495C36.7627 23.9495 36.4267 22.5418 36.3056 22.1822C36.1844 21.8226 35.7524 20.7504 35.7524 20.7504L37.0301 18.5577L35.1102 16.6917L32.2028 18.0073C32.2028 18.0073 31.2634 17.4723 30.932 17.332C30.6006 17.1917 29.4897 16.8562 29.4897 16.8562L28.7606 14.0517H25.8944L24.9116 16.8167C24.3921 16.9349 23.8801 17.0813 23.3779 17.2553C23.0259 17.4175 22.0271 17.9372 22.0271 17.9372L19.314 16.6347L17.4855 18.4371L18.7403 20.7504C18.7403 20.7504 18.1232 22.1384 17.9678 22.6164C17.8581 22.9562 17.6592 24.2017 17.6592 24.2017L14.7198 24.7762V27.3592L17.7895 28.0038C17.7895 28.0038 18.098 29.4115 18.2466 29.7974C18.4135 30.236 18.8866 31.1372 18.8866 31.1372L17.4901 33.5645L19.6774 35.5555L21.9242 34.1149C21.9242 34.1149 23.1105 34.7332 23.5242 34.8779C23.9379 35.0226 25.1241 35.391 25.1241 35.391L25.9607 38.0222H28.7789L29.6315 35.3099C29.6315 35.3099 30.7743 34.9919 31.1697 34.8275C31.5148 34.6806 32.5182 34.1697 32.5182 34.1697L35.197 35.5708L37.0256 33.6237L35.5102 30.9662C35.5102 30.9662 36.4244 29.7646 36.5821 29.4093C36.7398 29.0541 37.0393 27.9665 37.0393 27.9665L39.83 27.4162V24.706L36.7627 23.9495ZM27.2749 30.8631C26.3257 30.8631 25.3975 30.593 24.6083 30.0871C23.819 29.581 23.2037 28.862 22.8405 28.0205C22.4771 27.1791 22.382 26.2534 22.5674 25.3601C22.7526 24.467 23.2097 23.6465 23.881 23.0025C24.5523 22.3585 25.4076 21.9199 26.3385 21.7423C27.2697 21.5646 28.2347 21.6558 29.1117 22.0043C29.9889 22.3528 30.7384 22.9431 31.2659 23.7002C31.7932 24.4576 32.0748 25.3478 32.0748 26.2584C32.0748 27.4798 31.5692 28.6509 30.6689 29.5144C29.7688 30.3781 28.5481 30.8631 27.2749 30.8631Z" fill="white"/>
<path d="M49.1343 20.6142C49.1343 20.6142 48.4387 18.2658 48.1256 17.521C47.7838 16.7192 46.5146 14.4277 46.5146 14.4277L49.543 9.3345L45.2597 5.33009L39.6951 8.1637C39.6951 8.1637 37.3694 6.93823 36.5567 6.60339C35.7942 6.28905 33.4183 5.56471 33.4183 5.56471L31.8646 0H23.133L21.5793 5.56471C21.5793 5.56471 19.2034 6.28905 18.4409 6.60339C17.6306 6.93823 15.3049 8.1637 15.3049 8.1637L9.73794 5.33009L5.45458 9.3345L8.48305 14.43C8.48305 14.43 7.21143 16.7215 6.8744 17.5233C6.55889 18.2681 5.86332 20.6142 5.86332 20.6142L0 22.1746V30.4704L5.73664 31.9282C5.73664 31.9282 6.49913 34.1923 6.82899 34.9189C7.17796 35.6934 8.46632 37.9074 8.46632 37.9074L5.49044 43.2125L9.69253 47.2943L15.0395 44.4083C15.0395 44.4083 17.4442 45.6179 18.2879 45.9413C19.0671 46.242 21.5339 46.9048 21.5339 46.9048L23.176 52.5037H31.8312L33.4685 46.9139C33.4685 46.9139 35.9329 46.2511 36.7145 45.9504C37.5558 45.627 39.9605 44.4174 39.9605 44.4174L45.3075 47.3034L49.5096 43.2216L46.5361 37.9166C46.5361 37.9166 47.822 35.7025 48.1734 34.9281C48.5009 34.2014 49.2634 31.9373 49.2634 31.9373L55 30.4795V22.1768L49.1343 20.6142ZM26.2451 0.694734H28.7549V12.2797H26.2451V0.694734ZM12.8118 27.4864H0.726639V25.1927H12.8118V27.4864ZM26.3336 51.8044V40.0941H28.6521V51.8044H26.3336ZM41.2082 28.3588L38.3399 29.0422C38.3399 29.0422 37.9909 30.0057 37.8355 30.3155C37.6801 30.6253 37.0563 31.5797 37.0563 31.5797L38.6673 34.1376L35.9926 37.0988L32.8853 35.5909C32.8853 35.5909 31.9507 36.0852 31.6304 36.2287C31.3101 36.3722 30.3205 36.7344 30.3205 36.7344L29.5604 39.4267H25.4563L24.3711 36.6934C24.3711 36.6934 23.3027 36.4223 22.937 36.2788C22.6478 36.1626 21.7418 35.6547 21.7418 35.6547L19.0695 37.215L16.0124 34.2538L17.5398 31.7072C17.5398 31.7072 17.0617 30.8211 16.9446 30.5114C16.8275 30.2016 16.5598 29.1082 16.5598 29.1082L13.5026 28.2745V24.22L16.4689 23.8419C16.4689 23.8419 16.7797 22.703 16.9231 22.3226C17.0474 21.9969 17.5398 21.047 17.5398 21.047L16.1773 18.2909L19.0146 15.5871L21.7418 16.8354C21.7418 16.8354 22.6645 16.3547 22.9776 16.2317C23.2907 16.1087 24.2612 15.8308 24.2612 15.8308L25.3535 12.9608H29.5269L30.3994 15.9219C30.3994 15.9219 31.3173 16.1748 31.5945 16.2773C31.9124 16.3957 32.7538 16.8057 32.7538 16.8057L35.8086 15.3502L38.6458 18.054L37.2284 20.8101C37.2284 20.8101 37.6801 21.7782 37.7949 22.0971C37.9096 22.416 38.1558 23.4091 38.1558 23.4091L41.2106 24.138L41.2082 28.3588ZM54.2734 27.4887H41.9229V25.1927H54.2734V27.4887Z" fill="white"/>
</svg>
