<svg width="191" height="192" viewBox="0 0 191 192" fill="none" xmlns="http://www.w3.org/2000/svg">
<path fill-rule="evenodd" clip-rule="evenodd" d="M0.90874 20.0009L19.6159 1.29374C19.7139 1.1958 19.9098 1.29374 19.9098 1.39169V153.008C19.9098 153.106 20.0077 153.204 20.1056 153.204H39.0087H151.938C152.035 153.204 152.133 153.302 152.133 153.4V172.107C152.133 172.205 152.035 172.303 151.938 172.303H1.00667C0.908731 172.303 0.810791 172.205 0.810791 172.107V20.1968C0.810791 20.0989 0.810797 20.0989 0.90874 20.0009Z" stroke="#B7B8BA"/>
<path fill-rule="evenodd" clip-rule="evenodd" d="M152.133 153.302V39.6876H171.232V191.5H19.9098L1.00666 172.597C0.90872 172.499 1.00667 172.401 1.10461 172.401H152.231V153.302H152.133Z" stroke="#B7B8BA"/>
<path fill-rule="evenodd" clip-rule="evenodd" d="M152.133 39.6877H39.0087V20.099H190.233V172.401L171.232 191.402H171.134V39.6877H152.133Z" stroke="#B7B8BA"/>
<path fill-rule="evenodd" clip-rule="evenodd" d="M19.9098 1.48972V153.204C19.9098 153.302 19.9098 153.302 20.0077 153.302H38.9108C39.0087 153.302 39.0087 153.302 39.0087 153.204V39.6877V20.1969C39.0087 20.099 39.0087 20.099 39.1067 20.099H190.135C190.233 20.099 190.233 20.001 190.233 19.9031L171.232 1C171.232 1 171.232 1 171.134 1H20.3995C20.1056 1 19.9098 1.19589 19.9098 1.48972Z" stroke="#B7B8BA"/>
</svg>
